<?xml version="1.0" encoding="utf-8"?>
<!-- Generator: Adobe Illustrator 19.0.0, SVG Export Plug-In . SVG Version: 6.00 Build 0)  -->
<svg version="1.1" baseProfile="basic" id="Слой_1"
	 xmlns="http://www.w3.org/2000/svg" xmlns:xlink="http://www.w3.org/1999/xlink" x="0px" y="0px" viewBox="0 0 88 98"
	 xml:space="preserve">
<style type="text/css">
	.st0{fill:none;}
	.st1{fill:#3F4D60;}
	.st2{fill:#FFFFFF;}
	.st3{fill:#AB00FF;}
</style>
<g>
	<g id="XMLID_30_">
		<path id="XMLID_31_" class="st0" d="M31,80c-2.8,0-5-2.2-5-5c0-1.1,0.4-2.1,1-3"/>
		<path id="XMLID_32_" class="st1" d="M31,81c-3.3,0-6-2.7-6-6c0-1.3,0.4-2.5,1.2-3.6c0.3-0.4,1-0.5,1.4-0.2c0.4,0.3,0.5,1,0.2,1.4
			C27.3,73.3,27,74.1,27,75c0,2.2,1.8,4,4,4c0.6,0,1,0.4,1,1S31.6,81,31,81z"/>
	</g>
	<path id="XMLID_29_" class="st1" d="M46,55H34c-0.6,0-1-0.4-1-1s0.4-1,1-1h12c0.6,0,1,0.4,1,1S46.6,55,46,55z"/>
	<path id="XMLID_24_" class="st1" d="M70,14c-0.6,0-1-0.4-1-1V1c0-0.6,0.4-1,1-1s1,0.4,1,1v12C71,13.6,70.6,14,70,14z"/>
	<path id="XMLID_23_" class="st1" d="M76,8H64c-0.6,0-1-0.4-1-1s0.4-1,1-1h12c0.6,0,1,0.4,1,1S76.6,8,76,8z"/>
	<path id="XMLID_28_" class="st1" d="M4,82c-0.6,0-1-0.4-1-1v-6c0-0.6,0.4-1,1-1s1,0.4,1,1v6C5,81.6,4.6,82,4,82z"/>
	<path id="XMLID_27_" class="st1" d="M7,79H1c-0.6,0-1-0.4-1-1s0.4-1,1-1h6c0.6,0,1,0.4,1,1S7.6,79,7,79z"/>
	<path id="XMLID_26_" class="st1" d="M83,67c-0.6,0-1-0.4-1-1v-8c0-0.6,0.4-1,1-1s1,0.4,1,1v8C84,66.6,83.6,67,83,67z"/>
	<path id="XMLID_25_" class="st1" d="M83,66.3c-0.6,0-1-0.4-1-1V58c0-0.6,0.4-1,1-1s1,0.4,1,1v7.3C84,65.8,83.6,66.3,83,66.3z"/>
	<g>
		<g id="XMLID_20_">
			<path id="XMLID_21_" class="st0" d="M54.5,71.3c1.6,1.4,3.1,3,3.5,4.7c1.3,4.7-4.3,15.3-7,21"/>
			<path id="XMLID_22_" class="st1" d="M51,98c-0.1,0-0.3,0-0.4-0.1c-0.5-0.2-0.7-0.8-0.5-1.3c0.3-0.7,0.7-1.5,1.1-2.3
				c2.6-5.3,6.9-14.3,5.8-18c-0.4-1.3-1.5-2.7-3.2-4.2c-0.4-0.4-0.5-1-0.1-1.4c0.4-0.4,1-0.5,1.4-0.1c2.1,1.8,3.4,3.5,3.9,5.2
				c1.3,4.5-2.9,13.1-6,19.4c-0.4,0.8-0.8,1.6-1.1,2.3C51.7,97.8,51.4,98,51,98z"/>
		</g>
		<g id="XMLID_15_">
			<path id="XMLID_16_" class="st0" d="M42.4,74.7c-0.1-0.9-0.2-1.8-0.2-2.7v-7c0-1.4-0.5-2.7-1.5-3.7c-1-1-2.3-1.5-3.7-1.5
				c-2.9,0-5.2,2.3-5.2,5.2v8.6c-1.6-0.4-3.2-1-4.7-1.8C16.8,66.9,10.2,56.4,10.2,45c0-16.4,13.4-29.8,29.8-29.8
				c16.4,0,29.8,13.4,29.8,29.8c0,10.9-5.9,20.9-15.4,26.1c-1.8,1-3.7,1.8-5.8,2.4C46.6,74.1,44.5,74.5,42.4,74.7z"/>
			<path id="XMLID_17_" class="st1" d="M42.4,75.7c-0.5,0-0.9-0.4-1-0.8c-0.2-0.9-0.2-1.9-0.2-2.9v-7c0-1.1-0.4-2.2-1.2-3
				c-0.8-0.8-1.9-1.2-3-1.2c-2.3,0-4.2,1.9-4.2,4.2v8.6c0,0.3-0.1,0.6-0.4,0.8s-0.6,0.2-0.9,0.2c-1.6-0.5-3.3-1.1-4.9-1.9
				C16,67.6,9.2,56.7,9.2,45C9.2,28,23,14.2,40,14.2S70.8,28,70.8,45c0,11.2-6.1,21.6-16,27c-1.9,1-3.9,1.9-5.9,2.5
				C46.9,75.1,44.7,75.5,42.4,75.7C42.5,75.7,42.4,75.7,42.4,75.7z M37,58.8c1.6,0,3.2,0.6,4.4,1.8c1.2,1.2,1.8,2.7,1.8,4.4v7
				c0,0.5,0,1.1,0.1,1.6c1.7-0.2,3.4-0.5,5-1c1.9-0.6,3.8-1.4,5.6-2.3c9.2-5.1,14.9-14.7,14.9-25.2c0-15.9-12.9-28.8-28.8-28.8
				c-15.9,0-28.8,12.9-28.8,28.8c0,11,6.4,21.2,16.3,25.9c1.1,0.5,2.2,1,3.3,1.3V65C30.8,61.6,33.6,58.8,37,58.8z"/>
		</g>
		<g id="XMLID_12_">
			<path id="XMLID_13_" class="st2" d="M63.2,45h-0.4c0-12.6-10.2-22.8-22.8-22.8v-0.4C52.8,21.8,63.2,32.2,63.2,45z"/>
			<path id="XMLID_14_" class="st3" d="M63.2,46h-0.4c-0.6,0-1-0.4-1-1c0-12-9.8-21.8-21.8-21.8c-0.6,0-1-0.4-1-1v-0.4
				c0-0.6,0.4-1,1-1c13.3,0,24.2,10.9,24.2,24.2C64.2,45.6,63.8,46,63.2,46z"/>
		</g>
		<g id="XMLID_9_">
			<path id="XMLID_10_" class="st2" d="M31.7,66.7C22.8,63.3,16.8,54.6,16.8,45h0.4c0,9.4,5.9,18,14.7,21.3L31.7,66.7z"/>
			<path id="XMLID_11_" class="st3" d="M31.7,67.7c-0.1,0-0.2,0-0.4-0.1C22.1,64.1,15.8,55,15.8,45c0-0.6,0.4-1,1-1h0.4
				c0.6,0,1,0.4,1,1c0,9,5.6,17.2,14,20.4c0.2,0.1,0.4,0.3,0.6,0.5s0.1,0.5,0,0.8L32.7,67C32.5,67.4,32.1,67.7,31.7,67.7z"/>
		</g>
		<g id="XMLID_6_">
			<path id="XMLID_7_" class="st0" d="M32.1,97c0-4.5-2.7-5.5-2.1-10c0.4-2.6,1-5,1.5-7c0.3-1.5,0.5-2.8,0.5-4V65c0-2.8,2.2-5,5-5
				c1.4,0,2.6,0.6,3.5,1.5c0.9,0.9,1.5,2.2,1.5,3.5c0,0,0,3.4,0,7c0,1,0.1,2,0.2,2.9c0.7,4.1,2.5,6.9,2.5,6.9"/>
			<path id="XMLID_8_" class="st1" d="M32.1,98c-0.6,0-1-0.4-1-1c0-1.9-0.5-3.1-1.1-4.3c-0.7-1.6-1.4-3.2-1-5.8
				c0.3-2,0.7-3.8,1.1-5.4c0.1-0.6,0.3-1.1,0.4-1.7c0.3-1.2,0.5-2.6,0.5-3.8V65c0-3.3,2.7-6,6-6c1.6,0,3.1,0.6,4.2,1.7
				c1.1,1.1,1.8,2.7,1.8,4.3v7c0,0.9,0.1,1.9,0.2,2.7c0.6,3.9,2.4,6.5,2.4,6.5c0.3,0.5,0.2,1.1-0.3,1.4c-0.5,0.3-1.1,0.2-1.4-0.3
				c-0.1-0.1-2-3-2.7-7.3c-0.2-1-0.3-2-0.3-3.1v-7c0-1.1-0.4-2.1-1.2-2.8C39.1,61.4,38.1,61,37,61c-2.2,0-4,1.8-4,4v11
				c0,1.4-0.3,2.9-0.6,4.2c-0.1,0.5-0.2,1.1-0.4,1.7c-0.4,1.7-0.8,3.4-1.1,5.3c-0.3,2.1,0.2,3.3,0.9,4.7c0.6,1.3,1.2,2.8,1.2,5.1
				C33.1,97.6,32.6,98,32.1,98z"/>
		</g>
		<path id="XMLID_3_" class="st1" d="M40,55c-0.6,0-1-0.4-1-1V35.5l-4.3,4.4c-0.4,0.4-1,0.4-1.4,0c-0.4-0.4-0.4-1,0-1.4l6-6.1
			c0.3-0.3,0.7-0.4,1.1-0.2c0.4,0.2,0.6,0.5,0.6,0.9v21C41,54.6,40.6,55,40,55z"/>
		<path id="XMLID_2_" class="st1" d="M70,12.9c-0.6,0-1-0.4-1-1V1c0-0.6,0.4-1,1-1s1,0.4,1,1v10.9C71,12.5,70.6,12.9,70,12.9z"/>
		<path id="XMLID_5_" class="st1" d="M4,81.5c-0.6,0-1-0.4-1-1V75c0-0.6,0.4-1,1-1s1,0.4,1,1v5.5C5,81,4.6,81.5,4,81.5z"/>
		<path id="XMLID_4_" class="st1" d="M87,63h-8c-0.6,0-1-0.4-1-1s0.4-1,1-1h8c0.6,0,1,0.4,1,1S87.6,63,87,63z"/>
	</g>
</g>
</svg>
