<?xml version="1.0" encoding="UTF-8" standalone="no"?>
<svg width="122px" height="58px" viewBox="0 0 122 58" version="1.1" xmlns="http://www.w3.org/2000/svg" xmlns:xlink="http://www.w3.org/1999/xlink">
    <!-- Generator: Sketch 41.2 (35397) - http://www.bohemiancoding.com/sketch -->
    <title>two-branches-with-leaves-symmetrical-symbol</title>
    <desc>Created with Sketch.</desc>
    <defs></defs>
    <g id="02_project" stroke="none" stroke-width="1" fill="none" fill-rule="evenodd">
        <g id="02_project/05a_results_voting" transform="translate(-99.000000, -753.000000)" fill="#B2B8BF">
            <g id="two-branches-with-leaves-symmetrical-symbol" transform="translate(99.000000, 753.000000)">
                <g id="Group">
                    <g id="Group-3">
                        <path d="M7.12784268,26.7154208 C7.25393682,26.7154208 7.38131894,26.7103203 7.50548109,26.6998644 C7.62616567,26.6896634 7.73525835,26.6256526 7.80146099,26.5258111 C7.86805003,26.425842 7.88466509,26.3013908 7.84641181,26.1879055 C7.7644957,25.9439759 7.69030753,25.6990262 7.61663455,25.4550966 C7.44636239,24.8920056 7.27029428,24.3102979 7.00496852,23.7683739 C6.7464691,23.2393284 6.40077283,22.7605226 6.06615325,22.2968906 C5.92383045,22.0995027 5.78125006,21.9019873 5.6460112,21.7015392 C5.63609369,21.6867478 5.62514578,21.672594 5.61329628,21.6593328 L4.1900683,20.0681162 C4.18259796,20.0595729 4.17422603,20.0512847 4.1659829,20.0435065 C3.15220667,19.0926529 1.94317128,18.7812697 0.439959181,18.6064513 C0.424503312,18.6045387 0.409176241,18.6037736 0.394235567,18.6037736 C0.296477193,18.6037736 0.201423596,18.6397318 0.128652211,18.7056553 C0.0442889236,18.7817797 -0.00259388034,18.8905471 0.000110896808,19.0033948 C0.0938765047,22.8233858 3.69071492,26.7154208 7.12784268,26.7154208 L7.12784268,26.7154208 Z" id="Shape"></path>
                        <path d="M9.32568364,1.09790995 C9.30790939,1.09548723 9.28974875,1.09433962 9.27236089,1.09433962 C9.17936808,1.09433962 9.08869364,1.12672756 9.01708145,1.18729554 C7.48231362,2.47834997 6.46351422,4.60026966 6.29169647,6.8629621 C6.14473691,8.79705727 6.65156063,10.5782661 7.68220953,11.7500972 C7.75704169,11.8351474 7.86549038,11.8838568 7.97934862,11.8838568 L7.98205339,11.8838568 C8.09719962,11.8830918 8.2059059,11.8327247 8.27996528,11.7457618 C11.4065589,8.08898564 11.8503999,4.5631638 9.59835094,1.26584266 C9.53614106,1.17403434 9.4368371,1.11308382 9.32568364,1.09790995 L9.32568364,1.09790995 Z" id="Shape"></path>
                        <path d="M6.97852387,19.8724844 C7.01523156,19.8834504 7.05309844,19.8889334 7.09083652,19.8889334 C7.15703916,19.8889334 7.2232418,19.8721019 7.2823605,19.839714 C7.37496692,19.7885818 7.44323034,19.7027666 7.4711797,19.6016499 C8.63268829,15.3986142 6.87883351,11.217383 3.39121657,9.87557901 C3.34510656,9.85798241 3.29667817,9.8490566 3.24850738,9.8490566 C3.18552471,9.8490566 3.12241324,9.86384794 3.06522653,9.89394067 C2.96437698,9.9462204 2.89147679,10.0395589 2.86507302,10.1490913 C1.82978736,14.457579 3.71321385,18.9106648 6.97852387,19.8724844 L6.97852387,19.8724844 Z" id="Shape"></path>
                        <path d="M7.42833773,33.9739124 C7.55520465,33.9739124 7.68297317,33.9684294 7.80752172,33.9578459 C7.92176636,33.9481551 8.02583588,33.8896273 8.09319771,33.7974364 C8.16030194,33.7053731 8.18348575,33.5890825 8.15708197,33.4786575 C7.75548696,31.8127192 7.33328413,30.3283572 6.25704042,29.0824419 C4.87322491,26.6808894 2.48799786,26.1174158 0.813354408,25.9024313 C0.796352951,25.9000086 0.779480294,25.8993711 0.762865234,25.8993711 C0.66626605,25.8993711 0.572114046,25.9344367 0.499213862,25.9992126 C0.413691384,26.075337 0.366035787,26.1846144 0.368740564,26.2984822 C0.457096617,30.1004941 4.02031852,33.9739124 7.42833773,33.9739124 L7.42833773,33.9739124 Z" id="Shape"></path>
                        <path d="M26.0710012,55.2580078 C26.0595381,55.1440125 25.9977146,55.0406006 25.902661,54.9754422 C24.2788932,53.8676219 22.3354464,53.2578616 20.4306393,53.2578616 C18.2183892,53.2578616 16.3104909,54.0810762 15.1954787,55.5162187 C15.1309504,55.5997387 15.1028723,55.7050633 15.1178129,55.8092402 C15.1327536,55.9134172 15.1895539,56.0071381 15.2754628,56.0691088 C16.7545895,57.1390582 18.6002779,57.7281615 20.4731429,57.7281615 C22.6247287,57.7281615 24.6256198,56.9407777 25.9629389,55.5673508 C26.0429231,55.4851059 26.0827219,55.3720031 26.0710012,55.2580078 L26.0710012,55.2580078 Z" id="Shape"></path>
                        <path d="M19.8327551,51.0804906 C19.8335279,50.9626699 19.7803339,50.8502047 19.6881139,50.775738 C17.8857019,49.318281 15.74764,48.5157233 13.6681816,48.5157233 C11.8327971,48.5157233 10.2086428,49.1263761 8.97101405,50.2813757 C8.88987073,50.3571175 8.84491991,50.4635897 8.84723829,50.5740147 C8.84955667,50.6844397 8.89927305,50.7886166 8.98402274,50.8607882 C10.637028,52.2715759 12.6998713,53.0485038 14.7931113,53.0485038 C16.6089183,53.0485038 18.3004344,52.4725341 19.6842499,51.3828204 C19.7775004,51.3098838 19.8319823,51.1985663 19.8327551,51.0804906 L19.8327551,51.0804906 Z" id="Shape"></path>
                        <path d="M11.2047083,41.336652 C11.3122554,41.3077069 11.4030586,41.2351528 11.453419,41.1368414 C11.5039082,41.03853 11.5100905,40.923387 11.4702917,40.8201027 C10.7633144,38.9945198 9.64469588,37.6990025 8.05132454,36.860104 L7.99813059,36.8254209 L7.20511569,36.3091266 C6.35027731,35.6779445 5.37514075,35.3836478 4.1380272,35.3836478 C3.50201817,35.3836478 2.85248526,35.4593897 2.18711008,35.5440573 C2.06925908,35.5588487 1.96480316,35.6256647 1.90220689,35.7255063 C1.83961062,35.8253478 1.82621553,35.9478864 1.86472641,36.0586939 C2.96119154,39.1875723 6.27183878,41.547046 9.56548455,41.547046 C10.1302678,41.5466635 10.6816559,41.4758946 11.2047083,41.336652 L11.2047083,41.336652 Z" id="Shape"></path>
                        <path d="M9.983639,11.8629692 C9.78181111,12.2294374 9.72513958,12.6374743 9.67027125,13.0323776 C9.64695864,13.1990352 9.62532043,13.3566395 9.5929919,13.5057005 C9.57096729,13.6083472 9.59183271,13.7152019 9.65017862,13.8022923 C9.70852452,13.8896377 9.80035815,13.9496957 9.90404127,13.9695875 C10.0636231,14.0000627 10.2295161,14.0468595 10.4058418,14.0964615 C10.736855,14.1896724 11.0789449,14.2860711 11.4282476,14.2860711 C11.5294835,14.2860711 11.6276283,14.2779104 11.7207499,14.2610789 C14.0686253,13.8451362 16.0155496,12.6164349 17.5069122,10.6085105 C17.7193017,10.3225021 17.8474566,9.98931447 17.9711035,9.66696527 C18.0271311,9.52147459 18.0849618,9.37037341 18.1509068,9.22373513 C18.1950848,9.12465865 18.1958576,9.01181093 18.1528388,8.91235192 C18.10982,8.81289291 18.0267447,8.73562092 17.9238343,8.69889759 C17.3472016,8.49411404 16.7213677,8.38993711 16.0635916,8.38993711 C13.6103588,8.38993711 11.1099855,9.81793894 9.983639,11.8629692 L9.983639,11.8629692 Z" id="Shape"></path>
                        <path d="M13.5345505,42.3169204 C13.5873581,42.3169204 13.640552,42.306337 13.6914276,42.284405 C15.8032146,41.3753751 16.4045767,39.5059283 16.6729936,38.1794257 C16.9611168,36.7563968 16.9083092,35.2767528 16.818794,34.0171937 C16.7683048,33.3074644 16.3615578,32.8301887 15.8063057,32.8301887 C15.5599134,32.8301887 15.1820174,32.9292652 14.781968,33.4006753 C14.6732617,33.5286969 14.5621082,33.6571011 14.4505684,33.7861428 C13.8061874,34.5299176 13.1396531,35.2989398 12.7866152,36.2072045 C12.1497046,37.8444528 11.6231747,40.0005456 13.216546,42.1567659 C13.2925374,42.2603053 13.411934,42.3169204 13.5345505,42.3169204 L13.5345505,42.3169204 Z" id="Shape"></path>
                        <path d="M9.52965621,34.9809066 C9.54936244,35.0831709 9.60925393,35.1733215 9.69670839,35.2310843 C9.76213824,35.2748207 9.83903119,35.2977728 9.91695453,35.2977728 C9.94258552,35.2977728 9.9682165,35.2953501 9.99384748,35.2902496 C10.142739,35.2610495 10.3036089,35.2430704 10.4734946,35.2239436 C10.8857799,35.1779119 11.3118468,35.1303501 11.6795676,34.9097552 C13.8843474,33.5870779 15.2653294,31.5865492 15.7847754,28.9633816 C15.8418333,28.6746954 15.8001024,28.3894521 15.7476813,28.0280844 C15.7193455,27.8345218 15.6874034,27.614947 15.6621588,27.3473002 C15.6495365,27.2149432 15.5703252,27.0982702 15.451315,27.0374472 C15.3946435,27.008247 15.3323048,26.9937107 15.2699661,26.9937107 C15.2022179,26.9937107 15.1343409,27.0109248 15.074063,27.0452254 L13.502201,27.9371686 L12.3942728,28.5658006 C12.3580803,28.5747264 12.3229182,28.5888802 12.2894305,28.6080069 C10.669913,29.548022 9.67403979,31.0487055 9.24526821,33.1961275 C9.15729855,33.6357873 9.28274869,34.0704741 9.40407727,34.4911347 C9.45276326,34.6634028 9.49964606,34.8255975 9.52965621,34.9809066 L9.52965621,34.9809066 Z" id="Shape"></path>
                        <path d="M18.7555643,47.7428725 C19.3023157,47.7428725 19.6762189,47.2606239 19.9411583,46.8403458 C20.9572529,45.2280898 21.2394513,43.3606831 20.8287116,40.9633385 C20.7187173,40.3202978 20.4640818,39.721376 20.1950209,39.0873886 C20.0724044,38.79934 19.9459238,38.5016005 19.8303912,38.191875 C19.7877588,38.0782622 19.6943795,37.9905343 19.5778165,37.9547035 C19.5395633,37.9429724 19.5001508,37.9371069 19.4607383,37.9371069 C19.380239,37.9371069 19.3007701,37.9612066 19.2336658,38.0086409 C17.9014987,38.9384551 16.941818,40.6412443 16.6663171,42.5636084 C16.4168336,44.3046511 16.774637,45.9712271 17.6236794,47.0211572 C17.8959603,47.3568951 18.2703788,47.7428725 18.7555643,47.7428725 L18.7555643,47.7428725 Z" id="Shape"></path>
                        <path d="M23.7006071,42.4053811 C23.6277069,42.3451957 23.5378053,42.3144654 23.4480325,42.3144654 C23.3707531,42.3144654 23.2930874,42.3366524 23.2261119,42.3823016 C22.1386627,43.1166406 21.4875842,44.5100868 21.392273,46.306342 C21.279574,48.4300468 21.9936351,50.579254 23.12874,51.5331679 C23.4645187,51.8153509 23.7562483,51.9468153 24.0463034,51.9468153 C24.6126322,51.9468153 24.9363039,51.4333263 25.0426918,51.264246 C25.9605128,49.8069165 25.8928934,48.194788 25.7619049,47.1083896 C25.5675473,45.4971537 25.232155,43.6723359 23.7006071,42.4053811 L23.7006071,42.4053811 Z" id="Shape"></path>
                        <path d="M12.4886175,7.1071112 C12.7807335,7.15977347 13.0821229,7.18680592 13.3840276,7.18680592 C16.9922003,7.18680592 20.5039026,3.42228246 20.7411502,0.454578672 C20.7580229,0.243547058 20.6020474,0.0577627317 20.389658,0.0354482106 C20.1629719,0.0119860856 19.9329371,0 19.7054782,0 C16.2335747,0 13.0667959,2.79059025 12.1748634,6.63595603 C12.150778,6.73975043 12.1704842,6.84902783 12.2296029,6.93803089 C12.2896232,7.02677893 12.3830024,7.08798447 12.4886175,7.1071112 L12.4886175,7.1071112 Z" id="Shape"></path>
                        <path d="M9.74714383,28.0842008 C9.81102809,28.0881536 9.87529875,28.0896838 9.9399558,28.0896838 C11.7950465,28.0896838 13.8012184,26.5753566 14.9669773,25.0744182 C16.0626697,23.6638854 16.5186178,22.213569 16.2182588,21.0960578 C16.1749823,20.9345007 16.0326595,20.8185927 15.8643194,20.8068616 C15.7228981,20.7970432 15.5817345,20.7924528 15.4445637,20.7924528 C14.1215413,20.7924528 12.9939068,21.247414 12.0914128,22.1444578 C9.97808028,23.3606629 8.72241969,26.0033398 9.40028836,27.8290501 C9.4546415,27.9750509 9.59065315,28.0748924 9.74714383,28.0842008 L9.74714383,28.0842008 Z" id="Shape"></path>
                        <path d="M9.86545627,21.0542453 L9.88786728,21.0542453 C12.6084867,21.0542453 16.1556087,18.063462 16.665266,15.3400703 C16.6964354,15.1730302 16.6151633,15.0056075 16.4642109,14.9252752 C16.0476752,14.7036602 15.556565,14.591195 15.0051769,14.591195 C12.5068644,14.591195 8.90448759,17.0630063 8.50250619,19.6885966 C8.43707634,20.1146127 8.50521097,20.4373445 8.71064523,20.6754085 C8.99438923,21.0046433 9.45355735,21.0514401 9.86545627,21.0542453 L9.86545627,21.0542453 Z" id="Shape"></path>
                        <path d="M15.8010962,46.3816706 C15.9015593,46.3197 15.9685347,46.2157781 15.9836042,46.0994876 C15.9985449,45.9833245 15.9595188,45.8662689 15.8779891,45.7816013 C13.9806523,43.8098902 11.5402993,42.6792453 9.18302166,42.6792453 C7.74330743,42.6792453 6.40676112,43.106919 5.31828151,43.9155973 C5.23031185,43.9808832 5.17441313,44.0795771 5.16295002,44.1875794 C5.15161572,44.2957092 5.18626263,44.4033289 5.25877641,44.4853189 C6.91847919,46.358591 9.37699282,47.4768673 11.8351201,47.4768673 C13.2692959,47.4761022 14.6407468,47.0977755 15.8010962,46.3816706 L15.8010962,46.3816706 Z" id="Shape"></path>
                    </g>
                    <g id="Group-7" transform="translate(95.106893, 0.000000)">
                        <path d="M26.0263917,18.5091939 C26.0110646,18.5091939 25.9956088,18.509959 25.9806681,18.5118717 C24.477456,18.68669 23.2682918,18.9976907 22.2546444,19.9489268 C22.2464012,19.956705 22.2380293,19.9648658 22.230559,19.9735365 L22.1756906,20.0347421 L20.807331,21.5647532 C20.7954815,21.5780144 20.7844048,21.5920406 20.7746161,21.6069595 C20.6393772,21.8079177 20.4967968,22.004923 20.3543452,22.2023109 C20.020112,22.6659429 19.6741582,23.1446213 19.4155299,23.6737942 C19.1507194,24.2157183 18.9745225,24.797936 18.8038639,25.3605169 C18.7301909,25.6044465 18.6561316,25.8493962 18.5742154,26.0933258 C18.5359622,26.2068111 18.5524484,26.3312624 18.6191663,26.4312314 C18.6857553,26.531073 18.794848,26.5950838 18.9151462,26.6052847 C19.0393083,26.6154856 19.1661752,26.6208411 19.2927846,26.6208411 C22.7295259,26.6208411 26.326622,22.7288061 26.4205164,18.9091976 C26.4232211,18.7959674 26.3763383,18.6875826 26.2921038,18.6114582 C26.2186885,18.5450247 26.1241501,18.5091939 26.0263917,18.5091939 L26.0263917,18.5091939 Z" id="Shape"></path>
                        <path d="M18.5344166,11.7441962 L18.5371214,11.7441962 C18.6511084,11.7441962 18.7594283,11.6954868 18.8343892,11.6104366 C19.8650381,10.438733 20.3714755,8.65752413 20.2247735,6.72330144 C20.0529558,4.46060901 19.0341564,2.33919937 17.4995173,1.04763489 C17.4276475,0.987194412 17.3371019,0.954806479 17.2441091,0.954806479 C17.2263348,0.954806479 17.2086894,0.955954082 17.1909151,0.95824929 C17.0798905,0.973423165 16.9804577,1.03437369 16.9178614,1.12643702 C14.6663277,4.42350314 15.1096535,7.94958001 18.2361183,11.6063562 C18.3105641,11.6930641 18.4196568,11.7434311 18.5344166,11.7441962 L18.5344166,11.7441962 Z" id="Shape"></path>
                        <path d="M19.0413691,19.6960714 C19.0693185,19.7975706 19.1374531,19.8830033 19.2301883,19.9341355 C19.289307,19.9665234 19.3551233,19.9833549 19.4217123,19.9833549 C19.4594504,19.9833549 19.4973172,19.9778719 19.5340249,19.9669059 C22.799335,19.0052138 24.6828902,14.5520005 23.6474758,10.2431302 C23.621072,10.1335978 23.5481718,10.0402594 23.4471935,9.98797963 C23.3901356,9.95839695 23.3274105,9.94309556 23.2639126,9.94309556 C23.2154842,9.94309556 23.1674422,9.95214888 23.1213322,9.96961797 C19.6335865,11.311422 17.8798605,15.4930357 19.0413691,19.6960714 L19.0413691,19.6960714 Z" id="Shape"></path>
                        <path d="M25.7997056,26.0217918 C25.7827042,26.0217918 25.7657027,26.0229394 25.7492164,26.0248521 C22.2583795,26.4724177 20.9697464,28.0507556 20.3055304,29.2048626 C19.2291579,30.450778 18.8069551,31.9350124 18.4054889,33.6010783 C18.3785699,33.7115033 18.4018825,33.8277938 18.4692443,33.9199847 C18.5363486,34.012048 18.6406757,34.0705758 18.7550491,34.0802667 C18.8795977,34.0908502 19.0072374,34.0963332 19.1341043,34.0963332 C22.5425099,34.0963332 26.1054742,30.2225323 26.1940879,26.4210305 C26.1967927,26.3070352 26.1490083,26.1978853 26.0634858,26.1217609 C25.9904568,26.056985 25.8963048,26.0217918 25.7997056,26.0217918 L25.7997056,26.0217918 Z" id="Shape"></path>
                        <path d="M5.94715652,53.096064 C4.04196301,53.096064 2.09851623,53.7062068 0.474877147,54.8136446 C0.379437153,54.878803 0.318000072,54.9817048 0.306536969,55.0962102 C0.294687469,55.2102055 0.334486333,55.3235633 0.414856854,55.4059357 C1.75217596,56.7791076 3.75319585,57.5668739 5.90465288,57.5668739 C7.77751786,57.5668739 9.62320626,56.9776431 11.102333,55.9076937 C11.1882418,55.845723 11.2449134,55.7520021 11.2599828,55.6478251 C11.2749235,55.5437757 11.2469741,55.4379411 11.1823171,55.3548036 C10.0674337,53.9192786 8.15940663,53.096064 5.94715652,53.096064 L5.94715652,53.096064 Z" id="Shape"></path>
                        <path d="M12.6891356,48.4656096 C10.6090331,48.4656096 8.4708424,49.2682948 6.66894562,50.7256243 C6.5767256,50.8000911 6.52353165,50.9125562 6.52430444,51.0303769 C6.52507724,51.1481976 6.57994557,51.2598977 6.67280959,51.3332168 C8.0566251,52.4229305 9.74814121,52.9987727 11.5639483,52.9987727 C13.6571882,52.9987727 15.7200316,52.2219723 17.3730368,50.811057 C17.4572713,50.7388855 17.5069877,50.6347086 17.5098212,50.5242836 C17.5126548,50.4138586 17.4673176,50.3073864 17.3860455,50.2316446 C16.1660622,49.0925839 14.4982451,48.4656096 12.6891356,48.4656096 L12.6891356,48.4656096 Z" id="Shape"></path>
                        <path d="M24.2252677,35.5810776 C23.5600213,35.4967925 22.9104884,35.4206681 22.2746082,35.4206681 C21.0376234,35.4206681 20.0623581,35.7148373 19.2076485,36.3461469 L18.4147624,36.8624412 L18.3615684,36.8971243 C16.7684547,37.7360228 15.6498362,39.0314126 14.9424725,40.857123 C14.9026737,40.9601523 14.9085984,41.0752953 14.959474,41.1738617 C15.0103496,41.2725556 15.1005088,41.3448547 15.2081847,41.3736723 C15.7312371,41.5129149 16.2826252,41.5835563 16.847022,41.5835563 C20.1406678,41.5835563 23.451315,39.2240826 24.5477802,36.0952042 C24.5868063,35.9840141 24.5730248,35.8619856 24.5102997,35.7620165 C24.4474458,35.66243 24.3431187,35.5962515 24.2252677,35.5810776 L24.2252677,35.5810776 Z" id="Shape"></path>
                        <path d="M8.39832861,9.76470691 C8.52210437,10.0870561 8.65025928,10.4198612 8.86251989,10.7062522 C10.3543977,12.7141765 12.3009356,13.9432604 14.6491974,14.3588205 C14.7421902,14.375142 14.8402062,14.3838128 14.9416997,14.3838128 C15.2908736,14.3838128 15.6329635,14.287414 15.9641055,14.1942031 C16.1397872,14.1446011 16.3061954,14.0978044 16.4659061,14.0673291 C16.5699756,14.0474373 16.6614228,13.9869968 16.7197687,13.900034 C16.7779858,13.812561 16.7984648,13.7057064 16.7768266,13.6034421 C16.7448845,13.4543811 16.7228599,13.2967768 16.6995473,13.1301192 C16.6446789,12.735216 16.5880074,12.3267965 16.3861795,11.9607108 C15.2597042,9.91568058 12.7598462,8.48767874 10.3063557,8.48767874 C9.64819325,8.48767874 9.02235934,8.59147315 8.44611301,8.79663923 C8.34333148,8.83336255 8.26012738,8.91063455 8.21723734,9.01009356 C8.1742185,9.10955257 8.1747337,9.22240029 8.21929812,9.32147676 C8.28447037,9.46811504 8.34230108,9.61921623 8.39832861,9.76470691 L8.39832861,9.76470691 Z" id="Shape"></path>
                        <path d="M12.6269257,42.2385831 C12.6778013,42.2605151 12.7313816,42.2710986 12.7838028,42.2710986 C12.9068057,42.2710986 13.0262023,42.2141009 13.1023225,42.1110716 C14.6956938,39.9544687 14.1691639,37.7987585 13.5322532,36.1615102 C13.1792154,35.2531179 12.5126811,34.4840958 11.8683001,33.7404484 C11.7567602,33.6112792 11.6453492,33.4832576 11.5369005,33.354981 C11.1368511,32.8836983 10.7593415,32.7844944 10.5125628,32.7844944 C9.95756824,32.7844944 9.55043488,33.2616426 9.5000745,33.9714994 C9.41068806,35.2310584 9.35788051,36.7103199 9.64600367,38.1337313 C9.91364781,39.460489 10.5151387,41.3296808 12.6269257,42.2385831 L12.6269257,42.2385831 Z" id="Shape"></path>
                        <path d="M16.0400969,35.1627123 C16.2098538,35.1817115 16.3702085,35.1993081 16.519744,35.2290183 C16.545375,35.2341187 16.5708772,35.2365414 16.596637,35.2365414 C16.6745603,35.2365414 16.7510668,35.2134618 16.8170119,35.1698529 C16.90408,35.1117076 16.9643578,35.021557 16.9840641,34.9196752 C17.0139454,34.7647487 17.060957,34.602554 17.1105446,34.4304134 C17.2318732,34.0097528 17.3573233,33.5751935 17.2693537,33.1354061 C16.8405821,30.9878566 15.8449665,29.4867907 14.2250626,28.5472856 C14.1915749,28.5277763 14.1561552,28.51375 14.1203491,28.5050793 L13.012292,27.8764473 L11.4405589,26.984504 C11.3798946,26.9502034 11.3125328,26.9329894 11.2446558,26.9329894 C11.1824459,26.9329894 11.1201072,26.9473982 11.0634357,26.9767258 C10.9442967,27.0376764 10.864699,27.154732 10.8524631,27.2865789 C10.8273473,27.5546082 10.7950188,27.773928 10.7669406,27.9674906 C10.714133,28.3287308 10.6727886,28.6139741 10.7299753,28.9026603 C11.2489061,31.5259554 12.6304033,33.5263565 14.8346678,34.8490338 C15.2017447,35.0689913 15.6278115,35.1166806 16.0400969,35.1627123 L16.0400969,35.1627123 Z" id="Shape"></path>
                        <path d="M7.6655916,47.7247675 C8.1512923,47.7247675 8.52519554,47.3389176 8.79709004,47.0029246 C9.64613247,45.9529945 10.0039358,44.2868011 9.75445235,42.5453759 C9.47895148,40.6230118 8.51927079,38.9202226 7.18710364,37.9904084 C7.11974181,37.9436116 7.04053048,37.9188744 6.96003116,37.9188744 C6.92100509,37.9188744 6.88172142,37.9247399 6.84308175,37.936471 C6.72638994,37.9723017 6.63301072,38.0601572 6.59037828,38.1736425 C6.47458806,38.4834955 6.34797873,38.781235 6.22587736,39.0691561 C5.95668764,39.7031435 5.70205219,40.3016827 5.59205792,40.945106 C5.18170458,43.3420681 5.4640318,45.2093472 6.47974002,46.8221133 C6.74506578,47.2425188 7.11896902,47.7247675 7.6655916,47.7247675 L7.6655916,47.7247675 Z" id="Shape"></path>
                        <path d="M3.43313056,42.3713226 C3.36576873,42.326056 3.28848938,42.3034865 3.21121003,42.3034865 C3.12105079,42.3034865 3.03114915,42.3338343 2.95863536,42.3944022 C1.4269587,43.661357 1.09156634,45.4861748 0.897723975,47.0976657 C0.766735481,48.1840641 0.699116053,49.7961926 1.6173235,51.2535221 C1.7238402,51.4224749 2.04738306,51.9360914 2.61371188,51.9360914 C2.90376703,51.9360914 3.19549656,51.804627 3.53114653,51.522444 C4.66625134,50.5687851 5.38044131,48.4193229 5.26761346,46.2956181 C5.17165827,44.4991079 4.52045097,43.1056617 3.43313056,42.3713226 L3.43313056,42.3713226 Z" id="Shape"></path>
                        <path d="M13.8396962,7.17698753 C13.9455689,7.1578608 14.039077,7.09665526 14.0981957,7.0076522 C14.1573144,6.91864913 14.1770206,6.80937174 14.153064,6.70557734 C13.2615179,2.8607216 10.0943527,0.0696213057 6.62283561,0.0696213057 C6.39499033,0.0696213057 6.16482668,0.0817349029 5.93865579,0.105069516 C5.72626638,0.127384037 5.5701621,0.313040853 5.58716356,0.524199978 C5.82479755,3.49152123 9.33598469,7.25642723 12.9441574,7.25642723 C13.2460621,7.25668225 13.5475803,7.2296498 13.8396962,7.17698753 L13.8396962,7.17698753 Z" id="Shape"></path>
                        <path d="M14.48485,21.9966348 C13.5814544,21.0992085 12.45382,20.6446298 11.1316991,20.6446298 C10.9949147,20.6446298 10.8534935,20.6497303 10.7119435,20.6590386 C10.5436033,20.6703872 10.4012805,20.7865502 10.3580041,20.9482348 C10.057645,22.0661286 10.5141083,23.5160624 11.6092855,24.9265951 C12.7751732,26.4275336 14.7812163,27.9418607 16.6364358,27.9418607 C16.7009641,27.9418607 16.7652347,27.9399481 16.829119,27.9363777 C16.9856097,27.9270694 17.1216213,27.8272279 17.1754593,27.6816097 C17.8538431,25.8558993 16.5981825,23.2128399 14.48485,21.9966348 L14.48485,21.9966348 Z" id="Shape"></path>
                        <path d="M17.9470935,19.7625049 C17.5451121,17.1369146 13.9432506,14.6651032 11.4449381,14.6651032 L11.4445517,14.6651032 C10.8931635,14.6651032 10.4020533,14.7774409 9.9855176,14.9991835 C9.83456528,15.0795158 9.75329316,15.2469384 9.7844625,15.4138511 C10.293991,18.1373702 13.8407266,21.1281536 16.5617324,21.1281536 L16.5842723,21.1281536 C16.995656,21.1257309 17.4549529,21.0785516 17.7394697,20.7488068 C17.9443888,20.5116353 18.012137,20.1889035 17.9470935,19.7625049 L17.9470935,19.7625049 Z" id="Shape"></path>
                        <path d="M17.255057,42.8176131 C14.8973929,42.8176131 12.4569111,43.9483855 10.5597032,45.9199691 C10.4780446,46.0051468 10.4390186,46.1216923 10.454088,46.2379829 C10.4691575,46.3542734 10.536133,46.4580678 10.6365961,46.5201659 C11.7965591,47.2365258 13.1680099,47.6149801 14.602701,47.6149801 C17.0608282,47.6149801 19.5194707,46.4967038 21.1791734,44.6234316 C21.2515584,44.5418242 21.2863341,44.433822 21.274871,44.3256922 C21.2634079,44.2175624 21.2071228,44.1193785 21.1195395,44.05371 C20.0309311,43.2454143 18.6943848,42.8176131 17.255057,42.8176131 L17.255057,42.8176131 Z" id="Shape"></path>
                    </g>
                </g>
            </g>
        </g>
    </g>
</svg>