<?xml version="1.0" encoding="utf-8"?>
<!-- Generator: Adobe Illustrator 19.0.0, SVG Export Plug-In . SVG Version: 6.00 Build 0)  -->
<svg version="1.1" baseProfile="basic" id="Слой_1"
	 xmlns="http://www.w3.org/2000/svg" xmlns:xlink="http://www.w3.org/1999/xlink" x="0px" y="0px" viewBox="0 0 20 22.2"
	 xml:space="preserve">
<style type="text/css">
	.st0{fill:#FFAE2C;}
	.st1{fill:#FFFFFF;}
</style>
<g>
	<path class="st0" d="M10.4,20.1c-0.2,0.1-0.6,0.1-0.9,0L2.4,16C2.2,15.8,2,15.5,2,15.2V7c0-0.3,0.2-0.6,0.4-0.8l7.1-4.1
		c0.2-0.1,0.6-0.1,0.9,0l7.1,4.1C17.8,6.4,18,6.7,18,7v8.2c0,0.3-0.2,0.6-0.4,0.8L10.4,20.1z"/>
	<path class="st1" d="M10,2c0.2,0,0.3,0,0.4,0.1l7.1,4.1C17.8,6.4,18,6.7,18,7v8.2c0,0.3-0.2,0.6-0.4,0.8l-7.1,4.1
		c-0.1,0.1-0.3,0.1-0.4,0.1s-0.3,0-0.4-0.1L2.4,16C2.2,15.8,2,15.5,2,15.2V7c0-0.3,0.2-0.6,0.4-0.8l7.1-4.1C9.7,2,9.8,2,10,2 M10,0
		C9.5,0,9,0.1,8.6,0.4L1.4,4.5C0.6,5,0,6,0,7v8.2c0,1,0.6,2,1.4,2.5l7.1,4.1c0.4,0.2,0.9,0.4,1.4,0.4s1-0.1,1.4-0.4l7.1-4.1
		c0.9-0.5,1.4-1.5,1.4-2.5V7c0-1-0.6-2-1.4-2.5l-7.1-4.1C11,0.1,10.5,0,10,0L10,0z"/>
</g>
</svg>
