<?xml version="1.0" encoding="utf-8"?>
<!-- Generator: Adobe Illustrator 19.0.0, SVG Export Plug-In . SVG Version: 6.00 Build 0)  -->
<svg version="1.1" baseProfile="basic" id="Слой_1"
	 xmlns="http://www.w3.org/2000/svg" xmlns:xlink="http://www.w3.org/1999/xlink" x="0px" y="0px" viewBox="-560.7 253 19.9 22.2"
	 xml:space="preserve">
<style type="text/css">
	.st0{fill:#FFFFFF;}
	.st1{fill:#bcc1c8;}
</style>
<g>
	<g id="XMLID_31_">
		<path id="XMLID_35_" class="st0" d="M-550.8,275.2c-0.5,0-1-0.1-1.4-0.4l-7.1-4.1c-0.9-0.5-1.4-1.5-1.4-2.5V260c0-1,0.6-2,1.4-2.5
			l7.1-4.1c0.4-0.2,0.9-0.4,1.4-0.4s1,0.1,1.4,0.4l7.1,4.1c0.9,0.5,1.5,1.5,1.5,2.5v8.2c0,1-0.6,2-1.4,2.5l-7.1,4.1
			C-549.8,275.1-550.3,275.2-550.8,275.2z"/>
		<path id="XMLID_32_" class="st1" d="M-550.7,257.2l6,3.5v6.9l-6,3.5l-6-3.5v-6.9L-550.7,257.2 M-550.7,255c-0.2,0-0.3,0-0.4,0.1
			l-7.1,4.1c-0.2,0.1-0.4,0.5-0.4,0.8v8.2c0,0.3,0.2,0.6,0.4,0.8l7.1,4.1c0.1,0.1,0.3,0.1,0.4,0.1c0.1,0,0.3,0,0.4-0.1l7.1-4.1
			c0.2-0.1,0.4-0.5,0.4-0.8V260c0-0.3-0.2-0.6-0.4-0.8l-7.1-4.1C-550.4,255-550.6,255-550.7,255L-550.7,255z"/>
	</g>
</g>
</svg>
