<?xml version="1.0" encoding="UTF-8" standalone="no"?>
<svg width="20px" height="24px" viewBox="0 0 20 24" version="1.1" xmlns="http://www.w3.org/2000/svg" xmlns:xlink="http://www.w3.org/1999/xlink">
    <!-- Generator: sketchtool 39.1 (31720) - http://www.bohemiancoding.com/sketch -->
    <title>4AF0082D-EF2C-430F-9926-2C5A3CB6CA77</title>
    <desc>Created with sketchtool.</desc>
    <defs></defs>
    <g id="Page-1" stroke="none" stroke-width="1" fill="none" fill-rule="evenodd">
        <g id="1-Header-normal-mainpage" transform="translate(-205.000000, -613.000000)" fill="#FFFFFF">
            <g id="apple_icn" transform="translate(205.000000, 613.000000)">
                <path d="M16.1181538,12.7236923 C16.0913846,9.74861538 18.5541538,8.30123077 18.6667692,8.23384615 C17.272,6.20030769 15.1101538,5.92246154 14.3504615,5.90030769 C12.5347692,5.70923077 10.7735385,6.98676923 9.84861538,6.98676923 C8.90523077,6.98676923 7.48092308,5.91876923 5.94584615,5.95015385 C3.97046154,5.98061538 2.12246154,7.12430769 1.10892308,8.90030769 C-0.982769231,12.5215385 0.577230769,17.8430769 2.58123077,20.7701538 C3.58369231,22.2036923 4.75507692,23.8043077 6.28830769,23.748 C7.78830769,23.6861538 8.34861538,22.7916923 10.1587692,22.7916923 C11.9523077,22.7916923 12.4784615,23.748 14.0421538,23.712 C15.652,23.6861538 16.6655385,22.272 17.6329231,20.8255385 C18.7913846,19.1824615 19.2566154,17.5643077 19.2750769,17.4812308 C19.2372308,17.4683077 16.1486154,16.2895385 16.1181538,12.7236923 L16.1181538,12.7236923 Z" id="Shape"></path>
                <path d="M13.1643077,3.97476923 C13.9710769,2.96584615 14.5230769,1.59323077 14.3698462,0.200307692 C13.2021538,0.252 11.7418462,1.008 10.9009231,1.99476923 C10.1569231,2.86430769 9.49230769,4.28953846 9.664,5.62984615 C10.9756923,5.72769231 12.3224615,4.968 13.1643077,3.97476923 L13.1643077,3.97476923 Z" id="Shape"></path>
            </g>
        </g>
    </g>
</svg>