<svg width="169" height="50" viewBox="0 0 169 50" xmlns="http://www.w3.org/2000/svg"><title>google-play</title><defs><linearGradient x1="91.536%" y1="4.839%" x2="-37.559%" y2="71.968%" id="a"><stop stop-color="#00A0FF" offset="0%"/><stop stop-color="#00A1FF" offset=".657%"/><stop stop-color="#00BEFF" offset="26.01%"/><stop stop-color="#00D2FF" offset="51.22%"/><stop stop-color="#00DFFF" offset="76.04%"/><stop stop-color="#00E3FF" offset="100%"/></linearGradient><linearGradient x1="107.728%" y1="49.428%" x2="-130.665%" y2="49.428%" id="b"><stop stop-color="#FFE000" offset="0%"/><stop stop-color="#FFBD00" offset="40.87%"/><stop stop-color="#FFA500" offset="77.54%"/><stop stop-color="#FF9C00" offset="100%"/></linearGradient><linearGradient x1="86.389%" y1="17.815%" x2="-49.888%" y2="194.393%" id="c"><stop stop-color="#FF3A44" offset="0%"/><stop stop-color="#C31162" offset="100%"/></linearGradient><linearGradient x1="-18.579%" y1="-54.527%" x2="42.275%" y2="24.69%" id="d"><stop stop-color="#32A071" offset="0%"/><stop stop-color="#2DA771" offset="6.85%"/><stop stop-color="#15CF74" offset="47.62%"/><stop stop-color="#06E775" offset="80.09%"/><stop stop-color="#00F076" offset="100%"/></linearGradient></defs><g fill="none" fill-rule="evenodd"><path d="M6.25 50C2.75 50 0 47.25 0 43.75V6.25C0 2.75 2.75 0 6.25 0H162.5c3.5 0 6.25 2.75 6.25 6.25v37.5c0 3.375-2.75 6.25-6.25 6.25H6.25z" fill="#40474F"/><g stroke="#FFF" stroke-width=".2" fill="#FFF"><path d="M59.25 12.75c0 1-.25 1.875-.875 2.5-.75.75-1.625 1.125-2.75 1.125s-2-.375-2.75-1.125-1.125-1.625-1.125-2.75.375-2 1.125-2.75 1.625-1.125 2.75-1.125c.5 0 1 .125 1.5.375s.875.5 1.125.875l-.625.625c-.5-.625-1.125-.875-2-.875-.75 0-1.5.25-2 .875-.625.5-.875 1.25-.875 2.125s.25 1.625.875 2.125 1.25.875 2 .875c.875 0 1.5-.25 2.125-.875.375-.375.625-.875.625-1.5h-2.75v-.875h3.625v.375zM65 9.625h-3.375V12h3.125v.875h-3.125v2.375H65v1h-4.375v-7.5H65zM69.125 16.25h-1V9.625H66V8.75h5.25v.875h-2.125zM74.875 16.25v-7.5h1v7.5zM80.125 16.25h-1V9.625H77V8.75h5.125v.875H80v6.625zM92 15.25c-.75.75-1.625 1.125-2.75 1.125s-2-.375-2.75-1.125-1.125-1.625-1.125-2.75.375-2 1.125-2.75 1.625-1.125 2.75-1.125S91.25 9 92 9.75s1.125 1.625 1.125 2.75-.375 2-1.125 2.75zm-4.75-.625c.5.5 1.25.875 2 .875s1.5-.25 2-.875c.5-.5.875-1.25.875-2.125s-.25-1.625-.875-2.125c-.5-.5-1.25-.875-2-.875s-1.5.25-2 .875c-.5.5-.875 1.25-.875 2.125s.25 1.625.875 2.125zM94.5 16.25v-7.5h1.125l3.625 5.875V8.75h1v7.5h-1l-3.875-6.125v6.125z"/></g><path d="M85.125 27.25c-3 0-5.375 2.25-5.375 5.375 0 3 2.375 5.375 5.375 5.375s5.375-2.25 5.375-5.375c0-3.25-2.375-5.375-5.375-5.375zm0 8.5c-1.625 0-3-1.375-3-3.25s1.375-3.25 3-3.25 3 1.25 3 3.25c0 1.875-1.375 3.25-3 3.25zM73.5 27.25c-3 0-5.375 2.25-5.375 5.375 0 3 2.375 5.375 5.375 5.375s5.375-2.25 5.375-5.375c0-3.25-2.375-5.375-5.375-5.375zm0 8.5c-1.625 0-3-1.375-3-3.25s1.375-3.25 3-3.25 3 1.25 3 3.25c0 1.875-1.375 3.25-3 3.25zm-13.875-6.875v2.25H65c-.125 1.25-.625 2.25-1.25 2.875-.75.75-2 1.625-4.125 1.625-3.375 0-5.875-2.625-5.875-6s2.625-6 5.875-6c1.75 0 3.125.75 4.125 1.625l1.625-1.625c-1.375-1.25-3.125-2.25-5.625-2.25-4.5 0-8.375 3.75-8.375 8.25s3.875 8.25 8.375 8.25c2.5 0 4.25-.75 5.75-2.375 1.5-1.5 2-3.625 2-5.25 0-.5 0-1-.125-1.375h-7.75zm56.75 1.75c-.5-1.25-1.75-3.375-4.5-3.375s-5 2.125-5 5.375c0 3 2.25 5.375 5.25 5.375 2.375 0 3.875-1.5 4.375-2.375l-1.75-1.25c-.625.875-1.375 1.5-2.625 1.5s-2-.5-2.625-1.625l7.125-3-.25-.625zm-7.25 1.75c0-2 1.625-3.125 2.75-3.125.875 0 1.75.5 2 1.125l-4.75 2zM103.25 37.5h2.375V21.875h-2.375V37.5zm-3.75-9.125c-.625-.625-1.625-1.25-2.875-1.25C94 27.125 91.5 29.5 91.5 32.5s2.375 5.25 5.125 5.25c1.25 0 2.25-.625 2.75-1.25h.125v.75c0 2-1.125 3.125-2.875 3.125-1.375 0-2.375-1-2.625-1.875l-2 .875c.625 1.375 2.125 3.125 4.75 3.125 2.75 0 5-1.625 5-5.5v-9.5H99.5v.875zm-2.75 7.375c-1.625 0-3-1.375-3-3.25s1.375-3.25 3-3.25 2.875 1.375 2.875 3.25-1.25 3.25-2.875 3.25zm30.5-13.875h-5.625V37.5H124v-5.875h3.25c2.625 0 5.125-1.875 5.125-4.875s-2.5-4.875-5.125-4.875zm.125 7.5H124V24h3.375c1.75 0 2.75 1.5 2.75 2.625-.125 1.375-1.125 2.75-2.75 2.75zm14.375-2.25c-1.75 0-3.5.75-4.125 2.375l2.125.875c.5-.875 1.25-1.125 2.125-1.125 1.25 0 2.375.75 2.5 2v.125C144 31.125 143 30.75 142 30.75c-2.25 0-4.5 1.25-4.5 3.5 0 2.125 1.875 3.5 3.875 3.5 1.625 0 2.375-.75 3-1.5h.125v1.25h2.25v-6c-.25-2.75-2.375-4.375-5-4.375zm-.25 8.625c-.75 0-1.875-.375-1.875-1.375 0-1.25 1.375-1.625 2.5-1.625 1 0 1.5.25 2.125.5-.25 1.5-1.5 2.5-2.75 2.5zm13.125-8.25L152 34.25h-.125l-2.75-6.75h-2.5l4.125 9.5-2.375 5.25h2.375l6.375-14.75h-2.5zm-21 10H136V21.875h-2.375V37.5z" fill="#FFF"/><path d="M.917.625c-.375.375-.625 1-.625 1.75V30c0 .75.25 1.375.625 1.75l.125.125 15.5-15.5v-.25L.917.625z" fill="url(#a)" transform="translate(12.083 8.75)"/><path d="M21.667 21.625L16.542 16.5v-.375L21.667 11l.125.125 6.125 3.5c1.75 1 1.75 2.625 0 3.625l-6.25 3.375z" fill="url(#b)" transform="translate(12.083 8.75)"/><path d="M21.792 21.5l-5.25-5.25L.917 31.875c.625.625 1.5.625 2.625.125l18.25-10.5" fill="url(#c)" transform="translate(12.083 8.75)"/><path d="M21.792 11L3.542.625C2.417 0 1.542.125.917.75l15.625 15.5 5.25-5.25z" fill="url(#d)" transform="translate(12.083 8.75)"/><g fill="#000"><path d="M33.75 30.125l-18.125 10.25c-1 .625-1.875.5-2.5 0L13 40.5l.125.125c.625.5 1.5.625 2.5 0l18.125-10.5z" opacity=".2"/><path d="M13 40.375c-.375-.375-.5-1-.5-1.75v.125c0 .75.25 1.375.625 1.75v-.125H13z" opacity=".12"/></g><path d="M40 26.625l-6.25 3.5.125.125L40 26.75c.875-.5 1.25-1.125 1.25-1.75 0 .625-.5 1.125-1.25 1.625z" fill="#000" opacity=".12"/><path d="M15.625 9.5L40 23.375c.75.5 1.25 1 1.25 1.625 0-.625-.375-1.25-1.25-1.75L15.625 9.375c-1.75-1-3.125-.125-3.125 1.875v.125c0-2 1.375-2.875 3.125-1.875z" fill="#FFF" opacity=".25"/></g></svg>