<?xml version="1.0" encoding="utf-8"?>
<!-- Generator: Adobe Illustrator 19.0.0, SVG Export Plug-In . SVG Version: 6.00 Build 0)  -->
<svg version="1.1" id="Слой_1" xmlns="http://www.w3.org/2000/svg" xmlns:xlink="http://www.w3.org/1999/xlink" x="0px" y="0px"
	 viewBox="-440 269 24 24" style="enable-background:new -440 269 24 24;" xml:space="preserve">
<style type="text/css">
	.st0{fill:#3F4D60;}
</style>
<title>45FF01B8-46F5-4137-A4BD-9D12E040070D</title>
<desc>Created with sketchtool.</desc>
<path id="Fill-1_1_" class="st0" d="M-428,271.2c3.2,0,3.6,0,4.8,0.1s1.8,0.2,2.2,0.4c0.6,0.2,1,0.5,1.4,0.9s0.7,0.8,0.9,1.4
	c0.2,0.4,0.4,1.1,0.4,2.2c0.1,1.3,0.1,1.6,0.1,4.8s0,3.6-0.1,4.8c-0.1,1.2-0.2,1.8-0.4,2.2c-0.2,0.6-0.5,1-0.9,1.4s-0.8,0.7-1.4,0.9
	c-0.4,0.2-1.1,0.4-2.2,0.4c-1.3,0.1-1.6,0.1-4.8,0.1s-3.6,0-4.8-0.1s-1.8-0.2-2.2-0.4c-0.6-0.2-1-0.5-1.4-0.9s-0.7-0.8-0.9-1.4
	c-0.2-0.4-0.4-1.1-0.4-2.2c-0.1-1.3-0.1-1.6-0.1-4.8s0-3.6,0.1-4.8c0.1-1.2,0.2-1.8,0.4-2.2c0.2-0.6,0.5-1,0.9-1.4s0.8-0.7,1.4-0.9
	c0.4-0.2,1.1-0.4,2.2-0.4C-431.6,271.2-431.2,271.2-428,271.2 M-428,269c-3.3,0-3.7,0-4.9,0.1c-1.3,0.1-2.1,0.3-2.9,0.6
	c-0.8,0.3-1.5,0.7-2.1,1.4c-0.7,0.7-1.1,1.3-1.4,2.1c-0.3,0.8-0.5,1.6-0.6,2.9s-0.1,1.7-0.1,4.9s0,3.7,0.1,4.9
	c0.1,1.3,0.3,2.1,0.6,2.9s0.7,1.5,1.4,2.1c0.7,0.7,1.3,1.1,2.1,1.4s1.6,0.5,2.9,0.6c1.3,0.1,1.7,0.1,4.9,0.1s3.7,0,4.9-0.1
	c1.3-0.1,2.1-0.3,2.9-0.6c0.8-0.3,1.5-0.7,2.1-1.4c0.7-0.7,1.1-1.3,1.4-2.1c0.3-0.8,0.5-1.6,0.6-2.9s0.1-1.7,0.1-4.9s0-3.7-0.1-4.9
	c-0.1-1.3-0.3-2.1-0.6-2.9s-0.7-1.5-1.4-2.1c-0.7-0.7-1.3-1.1-2.1-1.4s-1.6-0.5-2.9-0.6C-424.3,269-424.7,269-428,269"/>
<path id="Fill-2_1_" class="st0" d="M-428,274.8c-3.4,0-6.2,2.8-6.2,6.2s2.8,6.2,6.2,6.2s6.2-2.8,6.2-6.2S-424.6,274.8-428,274.8
	L-428,274.8z M-428,285c-2.2,0-4-1.8-4-4s1.8-4,4-4s4,1.8,4,4S-425.8,285-428,285L-428,285z"/>
<path id="Fill-3_1_" class="st0" d="M-420.2,274.6c0,0.8-0.6,1.4-1.4,1.4s-1.4-0.6-1.4-1.4s0.6-1.4,1.4-1.4
	S-420.2,273.8-420.2,274.6"/>
</svg>
