<?xml version="1.0" encoding="UTF-8" standalone="no"?>
<svg width="60px" height="55px" viewBox="0 0 60 55" version="1.1" xmlns="http://www.w3.org/2000/svg" xmlns:xlink="http://www.w3.org/1999/xlink">
    <!-- Generator: Sketch 40.1 (33804) - http://www.bohemiancoding.com/sketch -->
    <title>logo-lykke copy</title>
    <desc>Created with Sketch.</desc>
    <defs>
        <linearGradient x1="50%" y1="-23.4461326%" x2="50%" y2="126.726519%" id="linearGradient-1">
            <stop stop-color="#FF0029" offset="0%"></stop>
            <stop stop-color="#AB00FF" offset="100%"></stop>
        </linearGradient>
        <linearGradient x1="-25.0225293%" y1="6.96905978%" x2="100.690898%" y2="143.556624%" id="linearGradient-2">
            <stop stop-color="#FF9100" offset="0%"></stop>
            <stop stop-color="#FF0029" offset="52%"></stop>
            <stop stop-color="#AB00FF" offset="100%"></stop>
        </linearGradient>
    </defs>
    <g id="01_Lykke_Wallet" stroke="none" stroke-width="1" fill="none" fill-rule="evenodd">
        <g id="01_lykke_wallet/01a_lykke_wallet_landing" transform="translate(-493.000000, -1515.000000)">
            <g id="Group-14" transform="translate(493.000000, 1509.000000)">
                <g id="logo-lykke-copy" transform="translate(0.000000, 6.000000)">
                    <polygon id="Shape" fill="url(#linearGradient-1)" points="13.6667929 54.9706274 29.991268 38.9695388 46.3157431 54.9706274 46.3157431 45.3894016 29.991268 29.3971436 13.6667929 45.3894016 13.6667929 45.3894016 13.6667929 45.3894016"></polygon>
                    <polygon id="Shape" fill="#FF8F1C" points="0 22.6240558 23.0812943 22.6240558 29.991268 29.3971436 6.90997374 29.3971436 6.90997374 29.3971436 6.90997374 29.3971436"></polygon>
                    <polygon id="Shape" fill="url(#linearGradient-2)" points="59.9825361 22.6240558 36.9012418 22.6240558 36.9012418 6.77308775 29.991268 0 29.991268 29.3971436 53.0725623 29.3971436 53.0725623 29.3971436 53.0725623 29.3971436"></polygon>
                </g>
            </g>
        </g>
    </g>
</svg>