<?xml version="1.0" encoding="utf-8"?>
<!-- Generator: Adobe Illustrator 19.0.0, SVG Export Plug-In . SVG Version: 6.00 Build 0)  -->
<svg version="1.1" baseProfile="basic" id="Слой_1"
	 xmlns="http://www.w3.org/2000/svg" xmlns:xlink="http://www.w3.org/1999/xlink" x="0px" y="0px" viewBox="0 0 31 26"
	 xml:space="preserve">
<style type="text/css">
	.st0{fill:#454E5F;}
</style>
<path class="st0" d="M31,12.5c0-1.9-1.6-3.5-3.5-3.5c-1.1,0-2.2,0.6-2.8,1.4C22.4,9,19.4,8.1,16,8l2-6.2l5,1.3C23.1,4.7,24.4,6,26,6
	c1.7,0,3-1.3,3-3s-1.3-3-3-3c-1.2,0-2.2,0.7-2.7,1.8l-5.5-1.4c-0.4-0.1-0.7,0.1-0.8,0.5L14.6,8c-3.2,0.1-6.1,1-8.3,2.4
	C5.7,9.6,4.6,9,3.5,9C1.6,9,0,10.6,0,12.5c0,1.4,0.9,2.7,2.1,3.2C2,16.1,2,16.6,2,17c0,5,6,9,13.5,9S29,22,29,17
	c0-0.4,0-0.9-0.1-1.3C30.1,15.2,31,13.9,31,12.5z M9,15c0-1.1,0.9-2,2-2s2,0.9,2,2c0,1.1-0.9,2-2,2S9,16.1,9,15z M20.4,21.5
	c-1.2,1-3,1.6-4.9,1.6s-3.8-0.6-4.9-1.6c-0.3-0.2-0.3-0.7-0.1-1c0.2-0.3,0.7-0.3,1-0.1c0.9,0.8,2.4,1.2,4.1,1.2s3.1-0.5,4.1-1.2
	c0.3-0.2,0.7-0.2,1,0.1C20.8,20.9,20.7,21.3,20.4,21.5z M20,17c-1.1,0-2-0.9-2-2c0-1.1,0.9-2,2-2s2,0.9,2,2C22,16.1,21.1,17,20,17z"
	/>
</svg>
