<?xml version="1.0" encoding="utf-8"?>
<!-- Generator: Adobe Illustrator 19.0.0, SVG Export Plug-In . SVG Version: 6.00 Build 0)  -->
<svg version="1.1" baseProfile="basic" id="Слой_1"
	 xmlns="http://www.w3.org/2000/svg" xmlns:xlink="http://www.w3.org/1999/xlink" x="0px" y="0px" viewBox="0 0 24.6 21.4"
	 xml:space="preserve">
<style type="text/css">
	.st0{fill-rule:evenodd;clip-rule:evenodd;fill:#454E5F;}
</style>
<path class="st0" d="M19,4.4L7.9,11.2c-0.4,0.3-0.6,0.8-0.5,1.3l1.2,4.2c0.1,0.3,0.5,0.3,0.6,0l0.3-2.3c0.1-0.4,0.3-0.8,0.6-1.1
	l9.1-8.5C19.4,4.6,19.2,4.3,19,4.4z M24.5,0.8l-4.2,20c-0.1,0.5-0.7,0.7-1,0.4l-5.7-4.1c-0.3-0.3-0.8-0.2-1.1,0l-3.2,2.6
	C9,20,8.4,19.9,8.3,19.4l-2.2-7l-5.7-2.1c-0.6-0.2-0.6-1,0-1.2l23.2-9C24.1-0.1,24.7,0.3,24.5,0.8z"/>
</svg>
