<?xml version="1.0" encoding="utf-8"?>
<!-- Generator: Adobe Illustrator 19.0.0, SVG Export Plug-In . SVG Version: 6.00 Build 0)  -->
<svg version="1.1" id="Слой_1" xmlns="http://www.w3.org/2000/svg" xmlns:xlink="http://www.w3.org/1999/xlink" x="0px" y="0px"
	 viewBox="-438.1 273 20.1 16.3" style="enable-background:new -438.1 273 20.1 16.3;" xml:space="preserve">
<style type="text/css">
	.st0{fill:#3F4D60;enable-background:new    ;}
</style>
<title>3DC2A956-E958-45D9-9116-A3CFAE9CF3D5</title>
<desc>Created with sketchtool.</desc>
<path id="_Path_2" class="st0" d="M-418,274.9c-0.7,0.3-1.5,0.6-2.4,0.7c0.9-0.5,1.5-1.3,1.8-2.3c-0.8,0.5-1.7,0.8-2.6,1
	c-1.3-1.4-3.3-1.7-4.9-0.8c-1.6,0.9-2.5,2.7-2.1,4.6c-3.3-0.2-6.4-1.7-8.5-4.3c-1.1,1.9-0.5,4.3,1.3,5.5c-0.7,0-1.3-0.2-1.9-0.5l0,0
	c0,1.9,1.4,3.6,3.3,4c-0.6,0.2-1.2,0.2-1.8,0.1c0.5,1.7,2.1,2.8,3.8,2.8c-1.5,1.1-3.2,1.8-5.1,1.8c-0.3,0-0.7,0-1-0.1
	c3.6,2.3,8.2,2.5,11.9,0.4s6.1-6,6.1-10.3V277C-419.2,276.4-418.5,275.7-418,274.9L-418,274.9z"/>
</svg>
