<?xml version="1.0" encoding="UTF-8" standalone="no"?>
<svg width="21px" height="24px" viewBox="0 0 21 24" version="1.1" xmlns="http://www.w3.org/2000/svg" xmlns:xlink="http://www.w3.org/1999/xlink">
    <!-- Generator: sketchtool 39.1 (31720) - http://www.bohemiancoding.com/sketch -->
    <title>5B6A7F34-5CAC-4326-A2FC-DFF9692ADF31</title>
    <desc>Created with sketchtool.</desc>
    <defs></defs>
    <g id="Page-1" stroke="none" stroke-width="1" fill="none" fill-rule="evenodd">
        <g id="1-Header-normal-mainpage" transform="translate(-447.000000, -615.000000)" fill="#FFFFFF">
            <g id="android_icn" transform="translate(447.000000, 615.000000)">
                <g id="Group">
                    <path d="M16.1946667,7.90695652 L4.04515942,7.90695652 C3.77489855,7.90695652 3.55582609,8.12602899 3.55582609,8.39628986 L3.55582609,18.5846377 C3.55582609,18.8548986 3.77489855,19.073971 4.04515942,19.073971 L6.21113043,19.073971 L6.21113043,22.5074783 C6.21113043,23.3041159 6.85692754,23.949971 7.65362319,23.949971 L7.65362319,23.949971 C8.45026087,23.949971 9.09611594,23.3041739 9.09611594,22.5074783 L9.09611594,19.073971 L11.1136812,19.073971 L11.1136812,22.5074783 C11.1136812,23.3041159 11.7594783,23.949971 12.5561739,23.949971 L12.5561739,23.949971 C13.3528116,23.949971 13.9986667,23.3041739 13.9986667,22.5074783 L13.9986667,19.073971 L16.1947246,19.073971 C16.4649855,19.073971 16.684058,18.8548986 16.684058,18.5846377 L16.684058,8.39628986 C16.684,8.12602899 16.4649275,7.90695652 16.1946667,7.90695652 L16.1946667,7.90695652 Z" id="Shape"></path>
                    <path d="M1.49889855,7.90457971 L1.49889855,7.90457971 C0.70226087,7.90457971 0.0564057971,8.55037681 0.0564057971,9.34707246 L0.0564057971,15.205913 C0.0564057971,16.0025507 0.702202899,16.6484058 1.49889855,16.6484058 L1.49889855,16.6484058 C2.29553623,16.6484058 2.9413913,16.0026087 2.9413913,15.205913 L2.9413913,9.34707246 C2.94133333,8.55043478 2.29553623,7.90457971 1.49889855,7.90457971 L1.49889855,7.90457971 Z" id="Shape"></path>
                    <path d="M18.7409275,7.90457971 L18.7409275,7.90457971 C17.9442899,7.90457971 17.2984348,8.55037681 17.2984348,9.34707246 L17.2984348,15.205913 C17.2984348,16.0025507 17.9442319,16.6484058 18.7409275,16.6484058 L18.7409275,16.6484058 C19.5375652,16.6484058 20.1834203,16.0026087 20.1834203,15.205913 L20.1834203,9.34707246 C20.1834203,8.55043478 19.5376232,7.90457971 18.7409275,7.90457971 L18.7409275,7.90457971 Z" id="Shape"></path>
                    <path d="M4.14347826,7.1924058 L16.0676522,7.1924058 C16.3787246,7.1924058 16.6107246,6.90585507 16.5468406,6.6013913 C16.1524058,4.72150725 14.9555362,3.13727536 13.3314783,2.22208696 L14.3508406,0.38284058 C14.4198261,0.258318841 14.3748406,0.101391304 14.2503188,0.0324057971 C14.1255072,-0.0367536232 13.9688116,0.0084057971 13.8998261,0.132927536 L12.8727536,1.98602899 C12.0315362,1.59565217 11.094029,1.37762319 10.1055652,1.37762319 C9.11704348,1.37762319 8.17953623,1.59565217 7.33831884,1.98602899 L6.31124638,0.132869565 C6.2422029,0.00828985507 6.08527536,-0.0366376812 5.96081159,0.0323478261 C5.83628986,0.101333333 5.79130435,0.25826087 5.86028986,0.382782609 L6.87965217,2.22202899 C5.2555942,3.13727536 4.05872464,4.72144928 3.66428986,6.6013913 C3.60034783,6.90585507 3.83234783,7.1924058 4.14347826,7.1924058 L4.14347826,7.1924058 Z M13.6635942,4.45136232 C13.6635942,4.75756522 13.4153623,5.00585507 13.1091014,5.00585507 C12.8028986,5.00585507 12.5546087,4.75762319 12.5546087,4.45136232 C12.5546087,4.14515942 12.8028406,3.89686957 13.1091014,3.89686957 C13.4153623,3.89686957 13.6635942,4.14515942 13.6635942,4.45136232 L13.6635942,4.45136232 Z M7.10191304,3.89686957 C7.40811594,3.89686957 7.6564058,4.14510145 7.6564058,4.45136232 C7.6564058,4.75756522 7.40817391,5.00585507 7.10191304,5.00585507 C6.79571014,5.00585507 6.54742029,4.75762319 6.54742029,4.45136232 C6.54742029,4.14515942 6.79565217,3.89686957 7.10191304,3.89686957 L7.10191304,3.89686957 Z" id="Shape"></path>
                </g>
            </g>
        </g>
    </g>
</svg>