<?xml version="1.0" encoding="UTF-8" standalone="no"?>
<svg width="29px" height="29px" viewBox="0 0 29 29" version="1.1" xmlns="http://www.w3.org/2000/svg" xmlns:xlink="http://www.w3.org/1999/xlink">
    <!-- Generator: sketchtool 40.1 (33804) - http://www.bohemiancoding.com/sketch -->
    <title>3490D28D-5C45-41E7-901F-7694BA258373</title>
    <desc>Created with sketchtool.</desc>
    <defs></defs>
    <g id="01_Lykke_Wallet" stroke="none" stroke-width="1" fill="none" fill-rule="evenodd">
        <g id="01_lykke_wallet/01a_lykke_wallet_landing" transform="translate(-432.000000, -5605.000000)">
            <g id="Group-32" transform="translate(418.000000, 5590.000000)">
                <g id="linkedin_icn" transform="translate(0.000000, 1.000000)">
                    <rect id="Rectangle-2" fill="#3f4d60" opacity="0" x="0" y="0" width="57" height="57"></rect>
                    <path d="M40.1598567,14.82 L16.8417118,14.82 C15.7251445,14.82 14.8201481,15.6973892 14.8201481,16.7803061 L14.8201481,40.2191851 C14.8201481,41.3021656 15.7254626,42.1803181 16.8417118,42.1803181 L40.1598567,42.1803181 C41.2761695,42.1803181 42.1801481,41.3015931 42.1801481,40.2191851 L42.1801481,16.7803061 C42.1801481,15.6977072 41.2761695,14.82 40.1598567,14.82 L40.1598567,14.82 Z M23.1149201,37.7224458 L18.9810197,37.7224458 L18.9810197,25.3695979 L23.1149201,25.3695979 L23.1149201,37.7224458 L23.1149201,37.7224458 Z M21.0483834,23.681993 L21.0205853,23.681993 C19.6343066,23.681993 18.7356713,22.7339318 18.7356713,21.5470106 C18.7356713,20.3361716 19.6607053,19.4138093 21.074464,19.4138093 C22.4883499,19.4138093 23.3580421,20.3359172 23.3855222,21.5470106 C23.3855222,22.7341863 22.488668,23.681993 21.0483834,23.681993 L21.0483834,23.681993 Z M38.016414,37.7224458 L33.8838494,37.7224458 L33.8838494,31.1132431 C33.8838494,29.4525458 33.2850773,28.319376 31.790596,28.319376 C30.6473121,28.319376 29.9686443,29.0838553 29.6706258,29.821936 C29.5601968,30.0855407 29.532844,30.4542312 29.532844,30.8224128 L29.532844,37.7221914 L25.4010427,37.7221914 C25.4010427,37.7221914 25.4551122,26.5279577 25.4010427,25.3694071 L29.5334801,25.3694071 L29.5334801,27.1206867 C30.082063,26.2791743 31.0623751,25.0787675 33.2568975,25.0787675 C35.976912,25.0787675 38.016414,26.8432783 38.016414,30.6392761 L38.016414,37.7224458 L38.016414,37.7224458 Z M29.5067634,27.2258716 C29.5257444,27.1947496 29.5522494,27.1573006 29.5785834,27.1208776 L29.5785834,27.2258716 L29.5067634,27.2258716 L29.5067634,27.2258716 Z" id="LinkedIn__x28_alt_x29_" fill="#3f4d60" opacity="1"></path>
                </g>
            </g>
        </g>
    </g>
</svg>