<?xml version="1.0" encoding="utf-8"?>
<!-- Generator: Adobe Illustrator 19.0.0, SVG Export Plug-In . SVG Version: 6.00 Build 0)  -->
<svg version="1.2" baseProfile="tiny" id="Слой_1"
	 xmlns="http://www.w3.org/2000/svg" xmlns:xlink="http://www.w3.org/1999/xlink" x="0px" y="0px" viewBox="0 0 94.9 29.3"
	 xml:space="preserve">
<g id="XMLID_2_">
	<linearGradient id="XMLID_18_" gradientUnits="userSpaceOnUse" x1="15.6604" y1="12.4677" x2="15.6604" y2="32.9278">
		<stop  offset="0" style="stop-color:#FF0029"/>
		<stop  offset="1" style="stop-color:#AB00FF"/>
	</linearGradient>
	<polygon id="XMLID_30_" fill="url(#XMLID_18_)" points="7.1,29.3 15.7,20.8 24.2,29.3 24.2,24.2 15.7,15.7 7.1,24.2 7.1,24.2 
		7.1,24.2 	"/>
	<polygon id="XMLID_29_" fill="#FF8F1C" points="0,12.1 12.1,12.1 15.7,15.7 3.6,15.7 3.6,15.7 3.6,15.7 	"/>
	<linearGradient id="XMLID_19_" gradientUnits="userSpaceOnUse" x1="11.7411" y1="1.0895" x2="31.4295" y2="22.4817">
		<stop  offset="0" style="stop-color:#FF9100"/>
		<stop  offset="0.5153" style="stop-color:#FF0029"/>
		<stop  offset="1" style="stop-color:#AB00FF"/>
	</linearGradient>
	<polygon id="XMLID_28_" fill="url(#XMLID_19_)" points="31.3,12.1 19.3,12.1 19.3,3.6 15.7,0 15.7,15.7 27.7,15.7 27.7,15.7 
		27.7,15.7 	"/>
	<g id="XMLID_3_">
		<path id="XMLID_53_" fill="#171C8F" d="M38.5,5h3.6v12.2h4.8l1.3,3.5h-9.7V5z"/>
		<path id="XMLID_51_" fill="#171C8F" d="M53.2,16.7l2.3-7H59l-5.6,15.2h-3.5l1.5-4.1L47.3,9.7h3.5L53.2,16.7z"/>
		<path id="XMLID_49_" fill="#171C8F" d="M63.6,20.8h-3.3V5h3.3v9.7l3.6-5.1H71l-3.7,5.3l4.3,5.8h-3.9l-4.1-5.5V20.8z"/>
		<path id="XMLID_47_" fill="#171C8F" d="M76,20.8h-3.3V5H76v9.7l3.6-5.1h3.9l-3.7,5.3l4.3,5.8h-3.9L76,15.3V20.8z"/>
		<path id="XMLID_44_" fill="#171C8F" d="M83.9,15.2c0-3.3,2.3-5.7,5.7-5.7c2.8,0,5.3,1.8,5.3,5.3c0,0.3,0,0.6-0.1,1h-7.8
			c0.2,1.5,1.4,2.1,2.4,2.1c1.2,0,1.9-0.6,2.4-1.4l2.7,1.8c-1,1.6-2.8,2.7-5,2.7C86.6,21,83.9,18.7,83.9,15.2z M91.6,13.9l0-0.1
			c-0.2-1.1-1.2-1.6-2.2-1.6c-0.8,0-2,0.4-2.3,1.7H91.6z"/>
	</g>
</g>
</svg>
