<?xml version="1.0" encoding="UTF-8" standalone="no"?>
<svg width="50px" height="50px" viewBox="0 0 50 50" version="1.1" xmlns="http://www.w3.org/2000/svg" xmlns:xlink="http://www.w3.org/1999/xlink">
    <!-- Generator: sketchtool 39.1 (31720) - http://www.bohemiancoding.com/sketch -->
    <title>08D1C133-B264-4700-9BDE-2F186E0C8315</title>
    <desc>Created with sketchtool.</desc>
    <defs></defs>
    <g id="Competition-Platform" stroke="none" stroke-width="1" fill="none" fill-rule="evenodd">
        <g id="02a_voting" transform="translate(-911.000000, -1012.000000)">
            <g id="facebook_icn" transform="translate(911.000000, 1012.000000)">
                <circle id="Oval-52-Copy-5" fill="#3C5A98" cx="25" cy="25" r="25"></circle>
                <path d="M22.0678199,34.9882417 L22.0678199,25.875538 L19,25.875538 L19,22.3480398 L22.0678199,22.3480398 L22.0678199,19.7141745 C21.9396753,18.4568744 22.3735529,17.2071979 23.2531798,16.3000397 C24.1328068,15.3928816 25.3682433,14.9209968 26.6284104,15.0108435 C27.5431983,15.008 28.4574597,15.0551034 29.3671155,15.1519435 L29.3671155,18.3266919 L27.4864596,18.3266919 C26.9998342,18.2167375 26.4906809,18.3613136 26.1343713,18.7106226 C25.7780617,19.0599317 25.6232822,19.5662437 25.7233448,20.055166 L25.7233448,22.3245231 L29.2495745,22.3245231 L28.7911647,25.8520213 L25.7350989,25.8520213 L25.7350989,35 L22.0678199,34.9882417 Z" id="_Path_-Copy-2" fill="#FFFFFF"></path>
            </g>
        </g>
    </g>
</svg>