<?xml version="1.0" encoding="UTF-8" standalone="no"?>
<svg width="14px" height="16px" viewBox="0 0 14 16" version="1.1" xmlns="http://www.w3.org/2000/svg" xmlns:xlink="http://www.w3.org/1999/xlink">
    <!-- Generator: sketchtool 39.1 (31720) - http://www.bohemiancoding.com/sketch -->
    <title>88CC6AB5-2237-4EAA-8D4E-028F9660B07C</title>
    <desc>Created with sketchtool.</desc>
    <defs></defs>
    <g id="Competition-Platform" stroke="none" stroke-width="1" fill="none" fill-rule="evenodd" opacity="0.600000024">
        <g id="02a_voting" transform="translate(-933.000000, -472.000000)">
            <g id="actions_project" transform="translate(911.000000, 460.000000)">
                <g id="Group-15" transform="translate(21.000000, 8.000000)">
                    <g id="finance_icn" transform="translate(0.000000, 4.000000)">
                        <rect id="Rectangle-6-Copy-2" fill="#D8D8D8" opacity="0" x="0" y="0" width="16" height="16"></rect>
                        <g id="Group-12" transform="translate(2.000000, 1.000000)">
                            <g id="Group-4" transform="translate(0.000000, 6.906200)" stroke="#3F4D60" stroke-width="2">
                                <path d="M12,0 L12,4 C12,5.657 9.314,7 6,7 C2.686,7 0,5.657 0,4 L0,0" id="Stroke-3"></path>
                            </g>
                            <g id="Group-8" transform="translate(0.000000, 2.906200)">
                                <path d="M12,0.0938 L12,4.0938 C12,5.7508 9.314,7.0938 6,7.0938 C2.686,7.0938 0,5.7508 0,4.0938 L0,0.0938" id="Fill-5"></path>
                                <path d="M12,0.0938 L12,4.0938 C12,5.7508 9.314,7.0938 6,7.0938 C2.686,7.0938 0,5.7508 0,4.0938 L0,0.0938" id="Stroke-7" stroke="#3F4D60" stroke-width="2"></path>
                            </g>
                            <path d="M12,3 C12,4.657 9.314,6 6,6 C2.686,6 0,4.657 0,3 C0,1.343 2.686,0 6,0 C9.314,0 12,1.343 12,3" id="Fill-9"></path>
                            <path d="M12,3 C12,4.657 9.314,6 6,6 C2.686,6 0,4.657 0,3 C0,1.343 2.686,0 6,0 C9.314,0 12,1.343 12,3 L12,3 Z" id="Stroke-11" stroke="#3F4D60" stroke-width="2"></path>
                        </g>
                    </g>
                </g>
            </g>
        </g>
    </g>
</svg>