<?xml version="1.0" encoding="UTF-8" standalone="no"?>
<svg width="12px" height="16px" viewBox="0 0 12 16" version="1.1" xmlns="http://www.w3.org/2000/svg" xmlns:xlink="http://www.w3.org/1999/xlink">
    <!-- Generator: sketchtool 39.1 (31720) - http://www.bohemiancoding.com/sketch -->
    <title>87E56B8A-89C3-4A84-8412-4E9BA0E858E0</title>
    <desc>Created with sketchtool.</desc>
    <defs></defs>
    <g id="Competition-Platform" stroke="none" stroke-width="1" fill="none" fill-rule="evenodd" opacity="0.600000024">
        <g id="02a_voting" transform="translate(-1058.000000, -472.000000)">
            <g id="actions_project" transform="translate(911.000000, 460.000000)">
                <g id="Group-14" transform="translate(145.000000, 8.000000)">
                    <g id="follow_icn" transform="translate(0.000000, 4.000000)">
                        <rect id="Rectangle-6-Copy-3" fill="#D8D8D8" opacity="0" x="0" y="0" width="16" height="16"></rect>
                        <path d="M13,0 L3,0 C2.448,0 2,0.448 2,1 L2,14.586 C2,15.189 2.493,15.588 3.007,15.588 C3.253,15.588 3.503,15.497 3.707,15.293 L8,11 L12.293,15.293 C12.497,15.497 12.747,15.588 12.993,15.588 C13.507,15.588 14,15.189 14,14.586 L14,1 C14,0.448 13.552,0 13,0 M12,2 L12,12.172 L9.414,9.586 C9.024,9.195 8.512,9 8,9 C7.488,9 6.976,9.195 6.586,9.586 L4,12.172 L4,2 L12,2" id="Fill-1" fill="#3F4D60"></path>
                    </g>
                </g>
            </g>
        </g>
    </g>
</svg>