<?xml version="1.0" encoding="UTF-8" standalone="no"?>
<svg width="161px" height="50px" viewBox="0 0 161 50" version="1.1" xmlns="http://www.w3.org/2000/svg" xmlns:xlink="http://www.w3.org/1999/xlink">
    <!-- Generator: Sketch 39.1 (31720) - http://www.bohemiancoding.com/sketch -->
    <title>logo-lykke copy</title>
    <desc>Created with Sketch.</desc>
    <defs>
        <linearGradient x1="50%" y1="-23.4461326%" x2="50%" y2="126.726519%" id="linearGradient-1">
            <stop stop-color="#FF0029" offset="0%"></stop>
            <stop stop-color="#AB00FF" offset="100%"></stop>
        </linearGradient>
        <linearGradient x1="-25.0225293%" y1="6.96905978%" x2="100.690898%" y2="143.556624%" id="linearGradient-2">
            <stop stop-color="#FF9100" offset="0%"></stop>
            <stop stop-color="#FF0029" offset="52%"></stop>
            <stop stop-color="#AB00FF" offset="100%"></stop>
        </linearGradient>
    </defs>
    <g id="Page-1" stroke="none" stroke-width="1" fill="none" fill-rule="evenodd">
        <g id="1-Header-normal-mainpage" transform="translate(-40.000000, -25.000000)">
            <g id="Group-3" transform="translate(40.000000, 25.000000)">
                <g id="Group-2">
                    <g id="logo-lykke-copy">
                        <polygon id="Shape" fill="url(#linearGradient-1)" points="12.0396825 49.4047619 26.4206349 35.0238095 40.8015873 49.4047619 40.8015873 40.7936508 26.4206349 26.4206349 12.0396825 40.7936508 12.0396825 40.7936508 12.0396825 40.7936508"></polygon>
                        <polygon id="Shape" fill="#FF8F1C" points="0 20.3333333 20.3333333 20.3333333 26.4206349 26.4206349 6.08730159 26.4206349 6.08730159 26.4206349 6.08730159 26.4206349"></polygon>
                        <polygon id="Shape" fill="url(#linearGradient-2)" points="52.8412698 20.3333333 32.5079365 20.3333333 32.5079365 6.08730159 26.4206349 0 26.4206349 26.4206349 46.7539683 26.4206349 46.7539683 26.4206349 46.7539683 26.4206349"></polygon>
                        <polygon id="Shape" fill="#171C8F" points="64.984127 8.49206349 71.0079365 8.49206349 71.0079365 29.1269841 79.0952381 29.1269841 81.2936508 35.0793651 64.984127 35.0793651"></polygon>
                        <polygon id="Shape" fill="#171C8F" points="89.6825397 28.1746032 93.5714286 16.3492063 99.5555556 16.3492063 90.1269841 41.9444444 84.1269841 41.9444444 86.6746032 35.0555556 79.7857143 16.3492063 85.7698413 16.3492063"></polygon>
                        <polygon id="Shape" fill="#171C8F" points="107.230159 35.0555556 101.587302 35.0555556 101.587302 8.49206349 107.238095 8.49206349 107.238095 24.8809524 113.333333 16.3492063 119.84127 16.3492063 113.492063 25.2142857 120.785714 35.0555556 114.126984 35.0555556 107.206349 25.7380952 107.206349 35.0555556"></polygon>
                        <polygon id="Shape" fill="#171C8F" points="128.214286 35.0555556 122.563492 35.0555556 122.563492 8.49206349 128.214286 8.49206349 128.214286 24.8809524 134.309524 16.3492063 140.81746 16.3492063 134.468254 25.2142857 141.761905 35.0555556 135.103175 35.0555556 128.18254 25.7380952 128.18254 35.0555556"></polygon>
                        <path d="M141.5,25.6984127 C141.5,20.1984127 145.388889,16.047619 151.150794,16.047619 C155.912698,16.047619 160.166667,19.1507937 160.166667,25.0634921 C160.165663,25.612954 160.128546,26.1617559 160.055556,26.7063492 L146.920635,26.7063492 C147.174321,28.7470325 148.944915,30.2558266 151,30.1825397 C152.674396,30.2326229 154.224494,29.302564 154.968254,27.8015873 L159.460317,30.8333333 C157.609874,33.6922929 154.412851,35.391368 151.007937,35.3253968 C148.46684,35.3213108 146.032749,34.3018958 144.247134,32.4939227 C142.461518,30.6859496 141.472468,28.2393637 141.5,25.6984127 L141.5,25.6984127 Z M154.595238,23.4126984 L154.595238,23.1904762 C154.222222,21.3571429 152.611111,20.5714286 150.857143,20.5714286 C149.06241,20.4620927 147.450102,21.6621051 147.039683,23.4126984 L154.634921,23.4126984 L154.595238,23.4126984 Z" id="Shape" fill="#171C8F"></path>
                    </g>
                </g>
            </g>
        </g>
    </g>
</svg>