<?xml version="1.0" encoding="UTF-8" standalone="no"?>
<svg width="50px" height="50px" viewBox="0 0 50 50" version="1.1" xmlns="http://www.w3.org/2000/svg" xmlns:xlink="http://www.w3.org/1999/xlink">
    <!-- Generator: sketchtool 39.1 (31720) - http://www.bohemiancoding.com/sketch -->
    <title>A2D9EED0-8470-4620-9775-B53FACE02DE5</title>
    <desc>Created with sketchtool.</desc>
    <defs></defs>
    <g id="Competition-Platform" stroke="none" stroke-width="1" fill="none" fill-rule="evenodd">
        <g id="02a_voting" transform="translate(-971.000000, -1012.000000)">
            <g id="twitter_icn" transform="translate(971.000000, 1012.000000)">
                <g id="twitter-copy-2">
                    <path d="M25,50 C38.8071187,50 50,38.8071187 50,25 C50,11.1928813 38.8071187,-2.27373675e-13 25,-2.27373675e-13 C11.1928813,-2.27373675e-13 0,11.1928813 0,25 C0,38.8071187 11.1928813,50 25,50 Z" id="Oval-52-Copy" fill="#2BA9E0"></path>
                    <path d="M35.0427904,18.9162734 C34.2933463,19.2497995 33.4981037,19.468907 32.683639,19.5662734 C33.5383508,19.0524636 34.1776901,18.2458957 34.4829917,17.2962734 C33.6767475,17.7761584 32.7943065,18.1143801 31.8739302,18.2962734 C30.6024999,16.9421941 28.5811462,16.6096559 26.943194,17.4851051 C25.3052418,18.3605544 24.4579797,20.2263043 24.8764473,22.0362734 C21.5767807,21.8710179 18.5025638,20.3115457 16.4194894,17.7462734 C15.3310655,19.6219133 15.886809,22.0207873 17.6890327,23.2262734 C17.0374767,23.2069756 16.3999766,23.0321143 15.8297015,22.7162734 L15.8297015,22.7662734 C15.842648,24.7097873 17.2147125,26.3785509 19.1185185,26.7662734 C18.5154173,26.9299973 17.8829283,26.9539379 17.2691837,26.8362734 C17.8065011,28.5063645 19.3443318,29.6511149 21.0978065,29.6862734 C19.6443762,30.8293178 17.8484404,31.4493146 15.9996404,31.4462734 C15.6655268,31.4463054 15.3317128,31.4262694 15,31.3862734 C18.5924813,33.7066065 23.1660958,33.874734 26.9191277,31.8244243 C30.6721597,29.7741146 33.0030319,25.8340138 32.9935275,21.5562734 L32.9935275,21.0262734 C33.7962014,20.4499688 34.4900819,19.7355227 35.0427904,18.9162734 L35.0427904,18.9162734 Z" id="_Path_2" fill="#FFFFFF"></path>
                </g>
            </g>
        </g>
    </g>
</svg>